<svg xmlns="http://www.w3.org/2000/svg" viewBox="0 0 623.25 112.19"><g id="ad1ed20c-23c9-4ffc-8221-e7117f11383e" data-name="Capa 2"><g id="be1fc6c3-4bbb-4d16-b1fa-b73f88a46dd8" data-name="Layer 1"><path d="M73.06,75.33V85.74H50.61V77q-8.74,9.75-21.32,9.74a29.61,29.61,0,0,1-20.47-8Q0,70.83,0,56.16T9.06,32.92q9.06-8.51,20.47-8.51,12.09,0,21.08,9.62V10.42H39.15V0H62.33V75.33ZM12.52,55.85q0,9.87,5.57,15.16a18.71,18.71,0,0,0,13.35,5.3,18.73,18.73,0,0,0,13.35-5.57q5.84-5.58,5.82-15.45t-5.94-15a20.1,20.1,0,0,0-13.35-5.05,17.39,17.39,0,0,0-13.38,6A20.89,20.89,0,0,0,12.52,55.85Z" fill="#fff"/><path d="M291.81,36.86v75.33H268.63V101.78H280.1V78.16q-9,9.63-21.08,9.62-11.41,0-20.47-8.5T229.49,56q0-14.67,8.81-22.62a29.63,29.63,0,0,1,20.47-7.95q12.59,0,21.33,9.74V26.44h22.44V36.86ZM247.43,71a17.37,17.37,0,0,0,13.37,6,20.1,20.1,0,0,0,13.35-5.05q5.94-5.05,6-15t-5.83-15.45a19.08,19.08,0,0,0-26.69-.27Q242,46.48,242,56.34A20.9,20.9,0,0,0,247.43,71Z" fill="#fff"/><path d="M73.12,55.91q0-13.81,9.13-22.66a30.75,30.75,0,0,1,22.24-8.84,31.16,31.16,0,0,1,22.14,8.72q9.24,8.73,9.24,22.78t-9.21,22.81a31.07,31.07,0,0,1-22.17,8.75A30.66,30.66,0,0,1,82.15,78.6Q73.12,69.72,73.12,55.91Zm12.39,0q0,8.84,5.52,14.48a18.88,18.88,0,0,0,27-.06,20.07,20.07,0,0,0,5.46-14.42,19.81,19.81,0,0,0-5.55-14.45,18.13,18.13,0,0,0-13.45-5.68,17.74,17.74,0,0,0-13.61,5.8A20.32,20.32,0,0,0,85.51,55.88Z" fill="#fff"/><path d="M140.81,85.74V65.28h10.48v2a9.74,9.74,0,0,0,4.53,6.91,16.27,16.27,0,0,0,9.4,2.71,18.05,18.05,0,0,0,9.07-2,6.11,6.11,0,0,0,3.38-5.49,5.35,5.35,0,0,0-2.8-5q-2.81-1.61-11.13-3-12.33-2.09-17.6-6.74a15.34,15.34,0,0,1-5.27-12.06,16,16,0,0,1,5.74-12.5q5.73-5,15.1-5a29,29,0,0,1,14.55,3.47V26.07h10.41V45.86H176.26V42.22q-4.75-7.34-13.81-7.33a13.47,13.47,0,0,0-7.62,2,6.15,6.15,0,0,0-3,5.33,4.66,4.66,0,0,0,2.75,4.66c1.83.84,5.76,1.74,11.81,2.67a62.12,62.12,0,0,1,13.12,3.17,16.48,16.48,0,0,1,7.37,6.05,16.82,16.82,0,0,1,2.93,9.83,15.81,15.81,0,0,1-6.38,13.23q-6.37,4.9-16.56,4.9-9.56,0-15.59-4.34v3.35Z" fill="#fff"/><path d="M317.48,75.33V36.49h-12V26.07h21.39V39.51a23.64,23.64,0,0,1,5.49-8.69,17.43,17.43,0,0,1,7.42-4.56,40.77,40.77,0,0,1,10.69-1.11h3.09V37h-2.34q-8.94,0-13.34,1.79a12,12,0,0,0-6.54,6.51Q329.2,50,329.2,62.2V75.33h13V85.74H305.47V75.33Z" fill="#fff"/><path d="M427.09,75.33V85.74h-22V78.9q-10.3,7.83-19.73,7.83a17.51,17.51,0,0,1-9.9-2.61,12.53,12.53,0,0,1-5.21-6.79Q369,73.18,369,63.93V36.49h-8.45V26.07h20.16V62.44a68.88,68.88,0,0,0,.37,8.88,6,6,0,0,0,2.16,3.76,6.8,6.8,0,0,0,4.5,1.48q8.15,0,17.39-7.77V36.49H394.54V26.07H416.8V75.33Z" fill="#fff"/><path d="M441.46,75.33V10.42H430.85V0h22.32V75.33h9.12V85.74H430.85V75.33Z" fill="#fff"/><path d="M478.32,75.33V10.42H467.71V0H490V75.33h9.12V85.74H467.71V75.33Z" fill="#fff"/><path d="M567.46,75.33V85.74H547V78.47q-8.5,8.27-19,8.26a20.69,20.69,0,0,1-14.15-5.3,17.29,17.29,0,0,1-6-13.56,17.45,17.45,0,0,1,6.37-13.81,22.8,22.8,0,0,1,15.39-5.48,29.5,29.5,0,0,1,16.21,5.05V47.71a22.13,22.13,0,0,0-.86-7,9.09,9.09,0,0,0-4-4.44,15.59,15.59,0,0,0-8.3-2q-8.8,0-12.75,7l-11.22-3q7.46-13.94,25.76-13.93A33.53,33.53,0,0,1,546,26.23a17,17,0,0,1,7.3,4.68,15.5,15.5,0,0,1,3.24,6.2,48.5,48.5,0,0,1,.83,10.6V75.33ZM545.82,63.56q-7.59-5.93-15.35-5.92a12,12,0,0,0-8.13,2.83,9.24,9.24,0,0,0-3.28,7.34,9.53,9.53,0,0,0,2.87,7,10.6,10.6,0,0,0,7.8,2.83q8.5,0,16.09-7.15Z" fill="#fff"/><path d="M574.24,85.74V65.28h10.48v2a9.74,9.74,0,0,0,4.53,6.91,16.23,16.23,0,0,0,9.4,2.71,18,18,0,0,0,9.06-2,6.1,6.1,0,0,0,3.39-5.49,5.35,5.35,0,0,0-2.8-5q-2.82-1.61-11.14-3-12.31-2.09-17.59-6.74a15.37,15.37,0,0,1-5.27-12.06A16,16,0,0,1,580,30.17q5.73-5,15.1-5a29,29,0,0,1,14.55,3.47V26.07h10.43V45.86H609.68V42.22q-4.74-7.34-13.8-7.33a13.47,13.47,0,0,0-7.62,2,6.14,6.14,0,0,0-3,5.33A4.66,4.66,0,0,0,588,46.88c1.82.84,5.76,1.74,11.8,2.67A62.08,62.08,0,0,1,613,52.72a16.42,16.42,0,0,1,7.37,6.05,16.82,16.82,0,0,1,2.93,9.83,15.81,15.81,0,0,1-6.38,13.23q-6.39,4.9-16.55,4.9-9.57,0-15.6-4.34v3.35Z" fill="#fff"/></g></g></svg>