<svg xmlns="http://www.w3.org/2000/svg" viewBox="0 0 208.36 183.89"><g id="ebd2af98-51df-4436-91ac-010ee5bd4e08" data-name="Capa 2"><g id="f7f8e42b-4b2a-438a-8d08-b34f6c459d8b" data-name="Layer 1"><polygon points="178.07 0 203.28 19.83 152.23 2.82 143.76 0 178.07 0" fill="#13110c"/><polygon points="208.35 25.01 208.35 75.12 161.15 42.56 208.35 25.01" fill="#13110c"/><polygon points="108.14 59.65 136.81 0.28 205.88 23.3 108.14 59.65" fill="#13110c"/><polygon points="203.47 82.96 105 183.9 105 145.78 203.47 82.96" fill="#13110c"/><polygon points="206.38 77.31 159.17 44.19 106.76 141.85 206.38 77.31" fill="#13110c"/><polygon points="30.28 0 5.08 19.83 56.13 2.82 64.59 0 30.28 0" fill="#13110c"/><polygon points="0 25.01 0 75.12 47.2 42.56 0 25.01" fill="#13110c"/><polygon points="100.21 59.65 71.54 0.28 2.48 23.3 100.21 59.65" fill="#13110c"/><polygon points="4.88 82.96 103.36 183.9 103.36 145.78 4.88 82.96" fill="#13110c"/><polygon points="1.97 77.31 49.19 44.19 101.6 141.85 1.97 77.31" fill="#13110c"/></g></g></svg>