<svg xmlns="http://www.w3.org/2000/svg" xmlns:xlink="http://www.w3.org/1999/xlink" viewBox="0 0 205.63 198.37"><defs><clipPath id="acfaf0de-a4dd-41cd-81a3-cf28eeed69ed" transform="translate(55.24 74.11)"><circle cx="20" cy="20" r="20" transform="translate(-8.25 21.44) rotate(-47.93)" fill="none"/></clipPath></defs><g id="b9f39713-b204-4205-890d-6aa128f4da37" data-name="Capa 2"><g id="adce743f-81ae-422a-94c2-b0d52b6e4abf" data-name="5"><g clip-path="url(#acfaf0de-a4dd-41cd-81a3-cf28eeed69ed)"><rect x="-51.01" y="-67.59" width="197.19" height="131.46" transform="translate(55.47 77.32) rotate(-3.88)" fill="#eaf6fc"/><path d="M37.54-40.74c.07-1,1.34-1.8,3.11-2.07a2.3,2.3,0,0,1,0-.26c.7-3.67,6-3.46,12.15-3.47,0-.08,0-.16,0-.24.13-1.93,3.53-3.28,7.6-3,2.28.14,5.07.76,6.68,2.54,1.86,2,0,4.88-1.58,6.46a19.72,19.72,0,0,1-13.43,5.51c-2.52,0-6.6-.76-9.17-2.66-.19,0-.39,0-.6,0C39.59-38.13,37.45-39.38,37.54-40.74Z" transform="translate(55.24 74.11)" fill="#fff"/><path d="M2.12-12.94a36.15,36.15,0,0,0,6.2-1.73A20.8,20.8,0,0,0,14-14.2c5.52-.27,9.9-2.35,9.79-4.66s-4.67-4-10.19-3.7C7-22.24-.25-20.62-5.54-16.44a2,2,0,0,0-.72.85C-7.63-12.08,1-12.73,2.12-12.94Z" transform="translate(55.24 74.11)" fill="#fff"/><path d="M67.38-7a14.49,14.49,0,0,0-4.85,1.54l-.26,0c-2.6-.27-4.83.73-5,2.22S59.12-.31,61.72,0a8,8,0,0,0,1.77,0,14.45,14.45,0,0,0,4.9.07c4.25-.61,7.48-2.67,7.2-4.59S71.64-7.57,67.38-7Z" transform="translate(55.24 74.11)" fill="#fff"/><path d="M45.35,5.11C44.43,3.33,40.67,3,36.4,4c0,0,0-.09,0-.14-1.1-2.13-6.25-2.25-11.5-.27S16.24,9,17.35,11.07c.92,1.78,4.67,2.15,8.94,1.07a.59.59,0,0,0,.06.14c1.1,2.13,6.25,2.25,11.49.27S46.45,7.24,45.35,5.11Z" transform="translate(55.24 74.11)" fill="#fff"/><path d="M103.74-31c-.26-1.23-2.68-1.77-5.41-1.2a9.35,9.35,0,0,0-2.88,1.07,26.73,26.73,0,0,0-6.67-.55c-5,.33-6.8,2.66-5.74,4,.75.95,4.15,1.91,9.1,1.57,3.76-.25,6.94-1,8.21-1.93C102.5-28.75,104-30,103.74-31Z" transform="translate(55.24 74.11)" fill="#fff"/><path d="M9-1.75a.14.14,0,0,1-.12-.06.14.14,0,0,1,0-.2A19.53,19.53,0,0,1,23.17-4.13c8.17,1.84,12.7-.5,12.75-.52a.14.14,0,0,1,.19.06.15.15,0,0,1-.06.2S31.38-2,23.1-3.85a19.22,19.22,0,0,0-14,2.08Z" transform="translate(55.24 74.11)" fill="#fff"/><path d="M25.36-6.12a27.79,27.79,0,0,1-6.08-.71A.14.14,0,0,1,19.17-7a.13.13,0,0,1,.17-.11c8.16,1.84,12.7-.5,12.75-.52a.14.14,0,0,1,.19.06.13.13,0,0,1-.06.19A15.84,15.84,0,0,1,25.36-6.12Z" transform="translate(55.24 74.11)" fill="#fff"/><path d="M26.51-24.49a.15.15,0,0,1-.14-.12.15.15,0,0,1,.12-.17c.13,0,.43-.12.85-.25A38.41,38.41,0,0,1,44.11-27a.15.15,0,0,1,.12.17.14.14,0,0,1-.16.12,38.12,38.12,0,0,0-16.64,1.92c-.45.15-.74.24-.89.27Z" transform="translate(55.24 74.11)" fill="#fff"/><path d="M.86,38.06A22.86,22.86,0,0,1-6.52,37a.15.15,0,0,1-.09-.19.15.15,0,0,1,.19-.08c.06,0,6.36,2.39,15.34,0a.14.14,0,0,1,.18.1A.15.15,0,0,1,9,37,31.15,31.15,0,0,1,.86,38.06Z" transform="translate(55.24 74.11)" fill="#fff"/><path d="M68.8-15.17a.15.15,0,0,1-.13-.1.14.14,0,0,1,.08-.18c.07,0,7.44-2.93,12.2-2.36,1,.12,2,.27,3.13.44,4.15.63,8.86,1.34,13.33.29a.15.15,0,0,1,.17.1.15.15,0,0,1-.11.18c-4.51,1.06-9.25.35-13.43-.28-1.1-.17-2.13-.33-3.12-.44-4.69-.56-12,2.31-12.06,2.34Z" transform="translate(55.24 74.11)" fill="#fff"/><path d="M-24.81-16.83a.15.15,0,0,1-.14-.15.13.13,0,0,1,.14-.14,4.36,4.36,0,0,0,1.15-.43c1.89-.86,5.82-2.65,12.7-1.63,6.32.95,11.26.29,12.88-.85a.14.14,0,0,1,.2,0,.16.16,0,0,1,0,.21c-1.66,1.17-6.69,1.85-13.08.9-6.8-1-10.68.75-12.54,1.6a4.31,4.31,0,0,1-1.27.46Z" transform="translate(55.24 74.11)" fill="#fff"/><path d="M29.82-28.8a.15.15,0,0,1-.14-.09.16.16,0,0,1,.08-.19,28.2,28.2,0,0,1,10.54-1.8c1.83.1,3.25.28,4.63.46a33.81,33.81,0,0,0,9.28.17.15.15,0,0,1,.16.13.15.15,0,0,1-.13.16,34.3,34.3,0,0,1-9.35-.17c-1.37-.18-2.79-.36-4.6-.46a27.74,27.74,0,0,0-10.42,1.78Z" transform="translate(55.24 74.11)" fill="#fff"/><path d="M57.33,19.83a.13.13,0,0,1-.11,0,.14.14,0,0,1,0-.2,14.79,14.79,0,0,1,9.69-2.87.15.15,0,0,1,.14.15.13.13,0,0,1-.15.14,14.5,14.5,0,0,0-9.49,2.8A.17.17,0,0,1,57.33,19.83Z" transform="translate(55.24 74.11)" fill="#fff"/><path d="M88.23-13.93h0c-4.88-2.1-8.26-.82-8.29-.8a.15.15,0,0,1-.19-.08.15.15,0,0,1,.08-.19c.15-.06,3.52-1.34,8.51.8a.15.15,0,0,1,.08.19A.15.15,0,0,1,88.23-13.93Z" transform="translate(55.24 74.11)" fill="#fff"/><path d="M98.16,34.78c-.43-2-5.45-2.72-11.22-1.51-.33.06-.65.14-1,.22a1.34,1.34,0,0,0-.23-.86c-.81-1.09-3.39-.53-5.77,1.24-1.16.87-2.82,2.23-3.09,3.74-.91,5,9.28,3.52,11.6,3C94.25,39.44,98.58,36.81,98.16,34.78Z" transform="translate(55.24 74.11)" fill="#fff"/><path d="M52.23-17.84a1.65,1.65,0,0,0-2-.12,16.44,16.44,0,0,0-3.3-.41c-2.1,0-4.24.61-4.87,2.1s1.71,3.15,5.14,2.7a7.68,7.68,0,0,0,4.22-1.79C52.35-16.12,52.72-17.23,52.23-17.84Z" transform="translate(55.24 74.11)" fill="#fff"/><ellipse cx="1.32" cy="37.33" rx="8.32" ry="4.92" transform="translate(49.12 74.83) rotate(-9.45)" fill="#fff"/><path d="M26.16,19.82l-8-.14L19,8.07l5.12.46a5,5,0,0,1,4.51,5.13l-.16,4A2.26,2.26,0,0,1,26.16,19.82Z" transform="translate(55.24 74.11)" fill="#96482f"/><polygon points="76.25 198.15 65.03 198.05 64.59 144.34 77.67 144.46 76.25 198.15" fill="#c48854"/><polygon points="90.31 198.28 79.09 198.18 76.37 144.45 91.73 144.59 90.31 198.28" fill="#c48854"/><path d="M33.59,124.27h0a.11.11,0,0,1-.11-.11l1.15-50.3c0-.06,0-.09.11-.1a.11.11,0,0,1,.11.11L33.7,124.16A.11.11,0,0,1,33.59,124.27Z" transform="translate(55.24 74.11)" fill="#322924"/><path d="M43,40.55c-.46,3-1.48,9.82-2.38,15.76h0c0,.23-.07.45-.11.67l-1,6.77c-.26,1.7-.44,2.88-.49,3.19a3.08,3.08,0,0,1,0,.54c-.05.59-.4,1.6-2.1,2.86a.6.6,0,0,1,0,.08c-.06.28-.24,1.34-.47,3.41,0,0-6.61.2-13.37-.13-5-.24-13.19-1.79-13.91-1.88l0-2.81a1.39,1.39,0,0,1-.6-.49,10.52,10.52,0,0,1-1.76-4.28v0c-.55-2.36-1.07-5-1.55-7.68-1.06-6-1.91-12.33-2.48-16.67a8.34,8.34,0,0,1,2.14-7l.24-.22a6.26,6.26,0,0,1,2-1.21c.48-.18,1-.36,1.42-.52l.11,0A41.7,41.7,0,0,1,14,29.4l.38-.07a40.44,40.44,0,0,1,14.8-.06l.77.14A45.9,45.9,0,0,1,35.76,31l.12,0c.95.32,1.9.67,2.85,1.06.21.09.42.19.62.3a1.71,1.71,0,0,1,.23.13A7.87,7.87,0,0,1,43,40.55Z" transform="translate(55.24 74.11)" fill="#1e759e"/><path d="M4.62,52.33l-.11.07C2.64,49.57-1.86,49.53-6,49.84h0c-3,.22-5.75.62-7.22.29-.58-.13-3.45-5.82-2.47-8.58,3.64-.63,3.44-2.44,7.43-3.69,4.83-1.51,11.05-5.24,15.31-6.42C9.1,35.24,9.57,49.2,4.62,52.33Z" transform="translate(55.24 74.11)" fill="#1e759e"/><path d="M51.81,59.11c0,4.66-2.78,10.5-7,10.19-3.62-.26-6.53-3.83-6.48-8.49S41,52.27,44.61,52.3,51.81,59.11,51.81,59.11Z" transform="translate(55.24 74.11)" fill="#1e759e"/><path d="M19.56,14.68c.87,1.71.61,3.59-.59,4.2s-2.87-.27-3.75-2-.6-3.58.6-4.19S18.69,13,19.56,14.68Z" transform="translate(55.24 74.11)" fill="#96482f"/><path d="M22.23,38.22c-4.57.18-8.39-2.8-8.53-6.65A5.87,5.87,0,0,1,14,29.4l.38-.07a40.44,40.44,0,0,1,14.8-.06l.77.14a6,6,0,0,1,.26,1.53C30.37,34.79,26.79,38.05,22.23,38.22Z" transform="translate(55.24 74.11)" fill="#fff"/><path d="M5.09,38.55a.13.13,0,0,1-.1-.06,9.26,9.26,0,0,0-6.28-4.77,1.3,1.3,0,0,1-.32-.1.11.11,0,0,1,0-.15.11.11,0,0,1,.15,0l.25.06a9.53,9.53,0,0,1,6.43,4.89.11.11,0,0,1-.05.14Z" transform="translate(55.24 74.11)" fill="#322924"/><path d="M28.39,20a2.78,2.78,0,0,1-2,3.37,2.77,2.77,0,0,1-3.15-2.31,2.76,2.76,0,0,1,2-3.37A2.78,2.78,0,0,1,28.39,20Z" transform="translate(55.24 74.11)" fill="#96482f"/><path d="M36.81,54.32c.43,4.17,1.16,9.6,3.21,12.16,2.23-.31,3.51.22,6,.77A10.09,10.09,0,0,0,49.9,66a9.33,9.33,0,0,0,1.26-3.61C51.53,53.19,46,43,41.72,34.52,37.39,36,36.35,37.72,32.18,39A39.21,39.21,0,0,1,36.81,54.32Z" transform="translate(55.24 74.11)" fill="#1e759e"/><path d="M28.45,20.69a.11.11,0,0,1-.11-.1,3.35,3.35,0,0,0-1.62-2.66.11.11,0,0,1,0-.15.12.12,0,0,1,.15-.05,3.54,3.54,0,0,1,1.74,2.84.12.12,0,0,1-.1.12Z" transform="translate(55.24 74.11)" fill="#322924"/><path d="M39.58,32.48c0,2.76,0,6,0,9.42a64.15,64.15,0,0,0,1.05,14.41h0c-.44,2.84-.84,5.49-1.13,7.44-2.58-4.18-3.79-11.52-3.61-21.92.07-4.07.06-7.85,0-10.84Z" transform="translate(55.24 74.11)" fill="#fcdd6c"/><path d="M8.94,56.25a23.74,23.74,0,0,1-2.19,8v0c-.55-2.36-1.07-5-1.55-7.68.15-1,.26-2.13.34-3.39a80.23,80.23,0,0,0-.13-10.48c-.24-3.55-.62-7.55-.75-10.4.08-.07,1.67-.54,2.39-.82.48-.18,1-.36,1.42-.52.12,3.08.32,7.11.62,11.49A85.72,85.72,0,0,1,9.28,52C9.22,53.51,9.11,54.93,8.94,56.25Z" transform="translate(55.24 74.11)" fill="#fcdd6c"/><path d="M-3,20-16,38c-1.79,2.5-2.6,6.49-1.4,9.39,1.67,4,7.27,3.35,9.52.21l4.46-6.19L6.92,27.09Z" transform="translate(55.24 74.11)" fill="#1e759e"/><path d="M26.23,20.73l-.11,11.72c-1.25.55-2.6-1.82-4.28-1.84s-3.17,2.38-4.36,1.9l.11-11.85Z" transform="translate(55.24 74.11)" fill="#f5a271"/><path d="M23.07,24.53c-1.25.91-5.53,1.82-5.53,1.82l0-3h1.1Z" transform="translate(55.24 74.11)" fill="#322924"/><path d="M26.28,15.21l-.05,5.19A4.58,4.58,0,0,1,21.6,25H20.28A4.31,4.31,0,0,1,16,20.58l.08-9.73,3.26,0c-.6.38-.62.94,1,1C26.48,12,26.23,13.83,26.28,15.21Z" transform="translate(55.24 74.11)" fill="#f5a271"/><path d="M25.84,17a1.6,1.6,0,0,0-.31,2.19,1.61,1.61,0,0,0,2.16-.43A1.6,1.6,0,0,0,28,16.53,1.61,1.61,0,0,0,25.84,17Z" transform="translate(55.24 74.11)" fill="#f5a271"/><path d="M6.91,27.1a1.36,1.36,0,0,1-1.24.39,7.2,7.2,0,0,1-2.45-.74L3,26.65A15.82,15.82,0,0,1,.71,25.27c-.36-.26-.71-.53-1-.8a13.19,13.19,0,0,1-1.31-1.25c-.17-.18-.32-.36-.46-.53C-3,21.54-3.39,20.52-3,20s1.56-.52,3,0l.66.27a16.5,16.5,0,0,1,1.47.79q.54.33,1.08.72a15.38,15.38,0,0,1,2.14,1.84l.19.2a6.8,6.8,0,0,1,1.35,2A1.35,1.35,0,0,1,6.91,27.1Z" transform="translate(55.24 74.11)" fill="#322924"/><path d="M51.84,60.37a3.52,3.52,0,0,1-2.13,2.52l-.19.07A6.44,6.44,0,0,1,45,62.79a8.75,8.75,0,0,1-1.87-1l-.29-.21c-2-1.5-3.13-3.73-2.72-5.67a3.72,3.72,0,0,1,3.21-2.83l.34-.05a7,7,0,0,1,3.3.46,8.38,8.38,0,0,1,3.72,2.74A5.19,5.19,0,0,1,51.84,60.37Z" transform="translate(55.24 74.11)" fill="#322924"/><path d="M50.63,59.92a3.34,3.34,0,0,1-5,2.12L45.53,62h0a2.55,2.55,0,0,1-1-3c.35-1.08.78-2.32,1.1-3a13.41,13.41,0,0,1,.7-1.35c.8-1.29,1.21-1.16,1.21-1.16l4.7,1.64a16.59,16.59,0,0,0-.88,2.41c-.2.64-.43,1.43-.67,2.38Z" transform="translate(55.24 74.11)" fill="#f5a271"/><path d="M39.68,49.34a.12.12,0,0,1-.08,0c-2.3-2.51-7.92-5.36-8-5.39a.11.11,0,0,1,0-.15.11.11,0,0,1,.14,0,40.49,40.49,0,0,1,7.55,4.95c-1.14-2.24-4.9-9.67-5-10.12a.09.09,0,0,1,.07-.13.11.11,0,0,1,.14.07c.11.4,3.53,7.17,5.32,10.7a.11.11,0,0,1,0,.14Z" transform="translate(55.24 74.11)" fill="#322924"/><path d="M22,14.74a6.35,6.35,0,0,1,3.28.39.29.29,0,0,1,.15.37.27.27,0,0,1-.25.18,12.22,12.22,0,0,1-1.61-.09A10.73,10.73,0,0,1,22,15.3a.29.29,0,0,1,0-.56Z" transform="translate(55.24 74.11)" fill="#322924"/><path d="M20,15.46a12.16,12.16,0,0,1-3.19.29.28.28,0,0,1-.27-.3.29.29,0,0,1,.18-.25,7.07,7.07,0,0,1,2.45-.4c.3,0,1.13-.05,1.06.44a.29.29,0,0,1-.23.22Z" transform="translate(55.24 74.11)" fill="#322924"/><path d="M16.85,17.2h0a.12.12,0,0,1-.06-.15,1.53,1.53,0,0,1,1-.83,3.49,3.49,0,0,1,1.46-.06.1.1,0,0,1,.11.1.11.11,0,0,1-.11.11h0a3.37,3.37,0,0,0-1.4.06,1.34,1.34,0,0,0-.87.71A.12.12,0,0,1,16.85,17.2Z" transform="translate(55.24 74.11)" fill="#322924"/><path d="M21.76,17.28h0a.11.11,0,0,1-.06-.14,1.52,1.52,0,0,1,1-.83,3.33,3.33,0,0,1,1.46-.07.11.11,0,0,1,.11.11.1.1,0,0,1-.1.11h0a3.35,3.35,0,0,0-1.39.05,1.32,1.32,0,0,0-.88.72A.1.1,0,0,1,21.76,17.28Z" transform="translate(55.24 74.11)" fill="#322924"/><path d="M39,66.94a3.08,3.08,0,0,1,0,.54c-3.41-2.28-2.43-9.71-2.43-9.71L40.48,57l-1,6.77C39.2,65.45,39,66.63,39,66.94Z" transform="translate(55.24 74.11)" fill="#322924"/><path d="M20.54,20.17h0c-.63,0-.76-.39-.77-.41v0l.12-1.82a.11.11,0,0,1,.12-.1.11.11,0,0,1,.1.12L20,19.71c0,.05.15.24.55.25.72,0,.87-.24.88-.24a.1.1,0,0,1,.14,0,.11.11,0,0,1,.05.14S21.38,20.17,20.54,20.17Z" transform="translate(55.24 74.11)" fill="#7b3e2e"/><path d="M-9.67,48.09a.12.12,0,0,1-.1-.07.11.11,0,0,1,.07-.14,12.24,12.24,0,0,0,5-4.62C-2.23,39.62,6.73,27.16,6.82,27A.1.1,0,0,1,7,27a.11.11,0,0,1,0,.15c-.09.13-9,12.59-11.48,16.22a12.37,12.37,0,0,1-5.15,4.7Z" transform="translate(55.24 74.11)" fill="#322924"/><path d="M18.58,17.12a.5.5,0,1,1-1,0,.5.5,0,0,1,.5-.5A.49.49,0,0,1,18.58,17.12Z" transform="translate(55.24 74.11)" fill="#322924"/><path d="M23.54,17.1a.5.5,0,0,1-.5.49.5.5,0,0,1,0-1A.49.49,0,0,1,23.54,17.1Z" transform="translate(55.24 74.11)" fill="#322924"/><path d="M22,88.76a.12.12,0,0,1-.11-.09l-1.05-5.39a10.33,10.33,0,0,1-.64-3.7l.05-6a.11.11,0,0,1,.11-.11h0a.11.11,0,0,1,.11.11l-.05,6A10,10,0,0,0,21,83.22l1.06,5.41a.1.1,0,0,1-.09.12Z" transform="translate(55.24 74.11)" fill="#322924"/><path d="M20.39,81.43a.1.1,0,0,1-.11-.1.11.11,0,0,1,.11-.11A1.59,1.59,0,0,0,22,79.55l0-6a.11.11,0,0,1,.11-.11h0a.11.11,0,0,1,.11.11l-.05,6a1.78,1.78,0,0,1-1.84,1.87Z" transform="translate(55.24 74.11)" fill="#322924"/><path d="M54.09,42.88a1.66,1.66,0,0,0-1.29-2l-11-2.31a1.85,1.85,0,0,0-.47,0l0-.28-.87.57h0a1.63,1.63,0,0,0-.68,1L36.26,56.77a1.67,1.67,0,0,0,1.29,2l11,2.3a1.67,1.67,0,0,0,1.06-.13l1-.65-.22-.19a3,3,0,0,0,.1-.32Z" transform="translate(55.24 74.11)" fill="#322924"/><path d="M54.91,42.35l-.81,3.89h0l-.85,4.08-1.86,8.9a1.66,1.66,0,0,1-2,1.3L38.37,58.21a1.66,1.66,0,0,1-1.29-2L40.6,39.36a1.67,1.67,0,0,1,2-1.29l11,2.3A1.67,1.67,0,0,1,54.91,42.35Z" transform="translate(55.24 74.11)" fill="#f05c52"/><path d="M48,46.8a1.15,1.15,0,1,1-.24-1.71A1.23,1.23,0,0,1,48,46.8Z" transform="translate(55.24 74.11)" fill="#fff"/><path d="M54.1,46.24l-.85,4.08-1.52,1.27-6,1.06C46,52.51,53.4,47.65,54.1,46.24Z" transform="translate(55.24 74.11)" fill="#322924"/><path d="M47.67,52c.75-.2,2.25-.45,3-.73,2.82-1.09,2.8-1.92,2.8-1.92s1.14.42,1.23,1.28a.82.82,0,0,1,0,.27,2.61,2.61,0,0,1-.78,1.29,4.52,4.52,0,0,1-1.08.72,13.34,13.34,0,0,1-2.24.74,17.55,17.55,0,0,1-2.25.36,7.32,7.32,0,0,1-1.81,0c-.38,0-1.49-.23-1.54-.65C44.88,52.68,47.23,52.12,47.67,52Z" transform="translate(55.24 74.11)" fill="#f5a271"/><path d="M45.54,54.5l1.91-.45c.7-.22,1.4-.44,2.08-.67a16.88,16.88,0,0,0,1.93-.78c.61-.28,1.15-.54,1.62-.74l.26-.11a.74.74,0,0,1,1,.38.72.72,0,0,1,0,.5,2.8,2.8,0,0,1-.83,1.24,4.62,4.62,0,0,1-1.1.72,12.69,12.69,0,0,1-2.29.79,20.64,20.64,0,0,1-2.3.43c-1.33.24-3,0-3.13-.33C44.44,54.77,45.54,54.5,45.54,54.5Z" transform="translate(55.24 74.11)" fill="#f5a271"/><path d="M46.47,56.62c.29-.11.61-.19.79-.26.94-.34,1.89-.63,2.8-1a12.07,12.07,0,0,0,1.6-.84c.5-.3.94-.58,1.44-.85l.12-.07a.76.76,0,0,1,1.07.94,3.62,3.62,0,0,1-1.56,1.73,9.19,9.19,0,0,1-2,.89,13.4,13.4,0,0,1-2,.51,12.74,12.74,0,0,1-2.07.2c-.33,0-.92-.14-.93-.48S46.08,56.77,46.47,56.62Z" transform="translate(55.24 74.11)" fill="#f5a271"/><path d="M49.24,57.51q.75-.37,1.44-.78l.66-.4c.2-.15.41-.29.59-.44L53,55.12l.18-.13a.75.75,0,0,1,1,.17.73.73,0,0,1,.13.53,3,3,0,0,1-1.12,1.86,7,7,0,0,1-1.68,1,10.21,10.21,0,0,1-1.75.57,9.86,9.86,0,0,1-1.81.25c-.31,0-.82-.13-.83-.44s.37-.52.56-.62Z" transform="translate(55.24 74.11)" fill="#f5a271"/><path d="M47.63,54.1H47.2a.12.12,0,0,1-.1-.12.11.11,0,0,1,.12-.1,13.17,13.17,0,0,0,4.13-.53c2.27-.7,3.29-2,3.22-2.42a.11.11,0,0,1,.21,0c.11.63-1.15,2-3.37,2.65A13.33,13.33,0,0,1,47.63,54.1Z" transform="translate(55.24 74.11)" fill="#7b3e2e"/><path d="M46.64,56a.11.11,0,1,1,0-.21,19.07,19.07,0,0,0,4.25-.75c2.44-.75,3.16-2,3.33-2.37a.11.11,0,0,1,.14-.06.11.11,0,0,1,.06.14c-.18.39-.93,1.72-3.46,2.5a19.59,19.59,0,0,1-4.31.75Z" transform="translate(55.24 74.11)" fill="#7b3e2e"/><path d="M46.62,57.93a.11.11,0,0,1-.11-.1.13.13,0,0,1,.11-.12A19,19,0,0,0,50.86,57c2.45-.74,3.17-2,3.33-2.37a.1.1,0,0,1,.14-.05.11.11,0,0,1,.06.14c-.17.39-.93,1.72-3.46,2.49a19.23,19.23,0,0,1-4.3.76Z" transform="translate(55.24 74.11)" fill="#7b3e2e"/><path d="M-6.74,41.47a4.39,4.39,0,0,1-1.37-.21.11.11,0,0,1-.08-.13A.11.11,0,0,1-8,41.06c3.1.95,6.25-1.94,6.28-2a.1.1,0,0,1,.15,0,.11.11,0,0,1,0,.15A8.72,8.72,0,0,1-6.74,41.47Z" transform="translate(55.24 74.11)" fill="#322924"/><path d="M-9.47,34h0a.11.11,0,0,1-.1-.12c0-.22.49-5.52,2.17-7.92a.11.11,0,0,1,.15,0,.1.1,0,0,1,0,.15c-1.64,2.35-2.12,7.77-2.12,7.82A.11.11,0,0,1-9.47,34Z" transform="translate(55.24 74.11)" fill="#322924"/><path d="M24.63,10l-.06,0a.08.08,0,0,1,0-.11,3.64,3.64,0,0,0,.5-2.55v0s0-.08.07-.09a.08.08,0,0,1,.09.08v0a3.78,3.78,0,0,1-.54,2.67A.09.09,0,0,1,24.63,10Z" transform="translate(55.24 74.11)" fill="#96482f"/><path d="M25,10a.09.09,0,0,1-.08-.08c0-.66,1.19-1.6,1.64-1.86.17-.11.22-.12.27-.09a.08.08,0,0,1,0,.11.09.09,0,0,1-.08,0c-.23.06-1.71,1.16-1.7,1.79A.09.09,0,0,1,25,10Z" transform="translate(55.24 74.11)" fill="#96482f"/><path d="M20.11,124.14h0A.1.1,0,0,1,20,124l1.17-37.58a.11.11,0,1,1,.21,0L20.22,124A.11.11,0,0,1,20.11,124.14Z" transform="translate(55.24 74.11)" fill="#322924"/><rect x="21.75" y="16.38" width="1.4" height="3.09" transform="translate(59.56 114.33) rotate(-89.48)" fill="#fff" opacity="0.5"/><path d="M24,18.77h0l-3.1,0a.14.14,0,0,1-.12-.12V17.21c0-.06.06-.1.13-.12l3.09,0a.18.18,0,0,1,.09,0,.11.11,0,0,1,0,.08v1.41A.13.13,0,0,1,24,18.77Zm-3-.27,2.85,0V17.36l-2.85,0Z" transform="translate(55.24 74.11)" fill="#fff"/><rect x="16.92" y="16.49" width="1.4" height="2.79" transform="translate(54.81 109.46) rotate(-89.48)" fill="#fff" opacity="0.5"/><path d="M19,18.72h0l-2.79,0a.18.18,0,0,1-.09,0,.11.11,0,0,1,0-.08V17.17a.13.13,0,0,1,.12-.12h0l2.8,0a.11.11,0,0,1,.08,0,.12.12,0,0,1,0,.09v1.4A.12.12,0,0,1,19,18.72Zm-2.67-.26,2.55,0V17.32l-2.55,0Z" transform="translate(55.24 74.11)" fill="#fff"/><path d="M20.91,18.13h0l-1.79,0a.12.12,0,0,1,0-.24h0l1.79,0A.12.12,0,0,1,21,18,.12.12,0,0,1,20.91,18.13Z" transform="translate(55.24 74.11)" fill="#fff"/><path d="M24,18l2.38-1.43Z" transform="translate(55.24 74.11)" fill="#fff"/><path d="M24,18.07a.11.11,0,0,1-.1-.06.12.12,0,0,1,0-.17l2.38-1.43a.13.13,0,0,1,.17.05.13.13,0,0,1,0,.16l-2.38,1.43Z" transform="translate(55.24 74.11)" fill="#fff"/><path d="M18.9,20.74a7.33,7.33,0,0,0,2,.25,3.34,3.34,0,0,0,1.88-.49s-.13,1.47-.74,1.68a3.62,3.62,0,0,1-1.88.08,1.56,1.56,0,0,1-1.12-.94C19,21.11,19,20.88,18.9,20.74Z" transform="translate(55.24 74.11)" fill="#fff"/><path d="M20.85,21.1a6.53,6.53,0,0,1-2.15-.33.12.12,0,0,1-.06-.14.1.1,0,0,1,.14-.06,6.63,6.63,0,0,0,2.14.31,5.3,5.3,0,0,0,1.83-.48.1.1,0,0,1,.14.05.11.11,0,0,1-.05.15,5.14,5.14,0,0,1-1.92.49Z" transform="translate(55.24 74.11)" fill="#7b3e2e"/><path d="M36.41,73.83S29.8,74,23,73.7c-5-.24-13.19-1.79-13.91-1.88l0-2.81a74.92,74.92,0,0,0,15.73,1.68c6,.1,9.74-.09,12-.27C36.82,70.7,36.64,71.76,36.41,73.83Z" transform="translate(55.24 74.11)" fill="#fff"/><path d="M25.26,11.38h0a.36.36,0,0,1,0-.1c.22-1.6-2-1.8-6.69-3.46-3.19-1.14-6-.31-6.21,1.29s2.14,4.05,5.41,4.51a11.88,11.88,0,0,0,5.34-.55h0l.43-.17a2,2,0,0,1,2,.2l.79-.82Z" transform="translate(55.24 74.11)" fill="#96482f"/><path d="M16.43,29l.12,5.1s3.9-1.55,5.29-3.48l-4.31-3.68Z" transform="translate(55.24 74.11)" fill="#322924"/><path d="M27.24,29l-.11,5.09s-3.9-1.54-5.29-3.47l4.3-3.69Z" transform="translate(55.24 74.11)" fill="#322924"/><path d="M22,13.4a18,18,0,0,1-4.78.64c-2.72-.06-4.84-.6-4.72-1.78.08-.86,2.1-.9,4.36-1.19S21.55,12.75,22,13.4Z" transform="translate(55.24 74.11)" fill="#96482f"/><ellipse cx="19.61" cy="8.55" rx="1.54" ry="3.1" transform="translate(56.05 92.88) rotate(-52.1)" fill="#96482f"/><path d="M12.49,12.37h0a.13.13,0,0,1-.08-.13c.32-1.42,4-1.25,4.17-1.24a.11.11,0,1,1,0,.21c-1-.05-3.71,0-3.95,1.07A.11.11,0,0,1,12.49,12.37Z" transform="translate(55.24 74.11)" fill="#322924"/><path d="M17.37,8.47a.12.12,0,0,1-.09-.05c0-.06-.88-1.36-.05-2.1a.12.12,0,0,1,.16,0,.13.13,0,0,1,0,.16c-.7.61.08,1.8.08,1.81a.1.1,0,0,1,0,.15Z" transform="translate(55.24 74.11)" fill="#322924"/><path d="M1.86,21.52l2,1.61A1.63,1.63,0,0,0,6,23.25l3.4-3.09a1.39,1.39,0,0,0-.16-2.06L5.84,15a1.39,1.39,0,0,0-2.06.06L1.54,18.17a2.5,2.5,0,0,0,.31,3.33Z" transform="translate(55.24 74.11)" fill="#f5a271"/><path d="M7.41,15.07a1.58,1.58,0,0,0-.81-1,1.53,1.53,0,0,0-1.72.17,11.37,11.37,0,0,0-2,1.71,7.58,7.58,0,0,0-1.07,1.34c.39.56,1.1.23,1.34.07l0,0c.33-.22.63-.48.93-.71.15-.12.3-.24.45-.34.32-.24.7-.65,1.12-.69.2,0,.27.12.35.27a.74.74,0,0,0,1.17,0A.87.87,0,0,0,7.41,15.07Z" transform="translate(55.24 74.11)" fill="#f5a271"/><path d="M2.86,21.74l1.2,2.36,4.18-.63a2,2,0,0,0,1.65-1.69l.23-2Z" transform="translate(55.24 74.11)" fill="#f5a271"/><path d="M6,23.22l-.48.61-.21.26L3.22,26.75,3,26.65A15.82,15.82,0,0,1,.71,25.27c-.36-.26-.71-.53-1-.8a13.19,13.19,0,0,1-1.31-1.25L.56,20.41l.1-.13.5-.64Z" transform="translate(55.24 74.11)" fill="#f5a271"/><path d="M8.18,20.78a1.32,1.32,0,0,0,.39-.1l0,0h0l0,0,.08-.05.05,0L9,20.42l.22-.19c.14-.12.26-.24.38-.36s.48-.49.7-.75c.45-.5.87-1,1.27-1.57a15.11,15.11,0,0,0,1.1-1.71,8.31,8.31,0,0,0,.81-1.91c.07-.23.26-.57,0-.64s-.78-.39-2.05,1.68c-.43.47-.87.93-1.31,1.4L8.78,17.74l-.67.67-.32.32-.14.13-.05.05h0l.06,0A.76.76,0,0,1,8,18.78a1,1,0,0,0,.16,2Z" transform="translate(55.24 74.11)" fill="#f5a271"/><path d="M8.4,15.39l-.07-.07a1.56,1.56,0,0,0-1.72-.11c-1.44.62-3.95,4-3.95,4,.33.73,1.08.47,1.91-.26a20.23,20.23,0,0,1,1.59-1.32c.09-.07,1.23-.9,1.24-.87l-.08-.08a.92.92,0,0,0,1-.07A.8.8,0,0,0,8.4,15.39Z" transform="translate(55.24 74.11)" fill="#f5a271"/><path d="M7.41,19.76a1.22,1.22,0,0,0,.37-.16l0,0h0l0,0L8,19.46l0,0,.13-.13.19-.21.34-.42c.2-.27.4-.54.59-.83a18.87,18.87,0,0,0,1-1.73,15.32,15.32,0,0,0,.87-1.83,9,9,0,0,0,.55-2c0-.24.19-.56-.05-.59s-1-.1-1.82,1.88c-.36.53-.74,1-1.11,1.56L7.59,16.66,7,17.41l-.27.36-.13.16,0,.05h0l0,0,0,0A1,1,0,0,1,7,17.79a1,1,0,0,0,.43,2Z" transform="translate(55.24 74.11)" fill="#f5a271"/><path d="M9.21,23.09a1.88,1.88,0,0,0,.32-.33l.11-.14.07-.12c.1-.16.17-.29.25-.44s.26-.55.38-.82.22-.54.32-.81.2-.53.3-.81l0-.21a.85.85,0,0,0-.42-.94L8,17.09c-.32-.17-.69.81-.13,1.51l1.28,1c-.11.31-.48.55-.67.82-.41.59-1.24,1.72-.69,2.45A1,1,0,0,0,9.21,23.09Z" transform="translate(55.24 74.11)" fill="#f5a271"/><path d="M7.76,21.77h0a.1.1,0,0,1-.06-.14,9.45,9.45,0,0,1,1.65-2.3.11.11,0,0,1,.15,0,.1.1,0,0,1,0,.15,9.77,9.77,0,0,0-1.6,2.23A.12.12,0,0,1,7.76,21.77Z" transform="translate(55.24 74.11)" fill="#7b3e2e"/><path d="M9.16,19.74h0c-.05,0-.53-.06-1.24-1a1.18,1.18,0,0,1,0-1.69.11.11,0,0,1,.12,0l2.81,1.48a.11.11,0,0,1,.05.15.11.11,0,0,1-.15,0L8,17.22a1,1,0,0,0,.05,1.35c.65.9,1.08.95,1.08.95a.1.1,0,0,1,.1.11A.11.11,0,0,1,9.16,19.74Z" transform="translate(55.24 74.11)" fill="#7b3e2e"/><path d="M3.41,19.69h0a1,1,0,0,1-.83-.46.11.11,0,0,1,0-.13,37.56,37.56,0,0,1,3.11-3.41c.85-.7,1.92-1,2.38-.67a.1.1,0,0,1,0,.15.11.11,0,0,1-.15,0c-.32-.23-1.28,0-2.12.65a39.63,39.63,0,0,0-3,3.32.77.77,0,0,0,.61.3h0a1.46,1.46,0,0,0,1.07-.63,22.64,22.64,0,0,1,2.86-2.21.11.11,0,0,1,.15,0,.1.1,0,0,1,0,.15A24.17,24.17,0,0,0,4.66,19,1.69,1.69,0,0,1,3.41,19.69Z" transform="translate(55.24 74.11)" fill="#7b3e2e"/><path d="M3.42,21.05a.12.12,0,0,1-.1-.07.11.11,0,0,1,.06-.14,7.65,7.65,0,0,1,4.17-.59.1.1,0,0,1,.09.12.11.11,0,0,1-.12.09h0a7.59,7.59,0,0,0-4,.58Z" transform="translate(55.24 74.11)" fill="#7b3e2e"/><path d="M9,17.56H9A.11.11,0,0,1,9,17.42.1.1,0,0,1,9,17.35a22.72,22.72,0,0,0,2.14-2.27.11.11,0,0,1,.17.13A15.13,15.13,0,0,1,9,17.56Z" transform="translate(55.24 74.11)" fill="#7b3e2e"/><path d="M2.49,17.73h0a1,1,0,0,1-.78-.4.11.11,0,0,1,.17-.14.8.8,0,0,0,.62.32h0c.47,0,1.07-.4,1.74-1.16.92-1.05,1.56-.89,1.58-.88a.12.12,0,0,1,.08.14.11.11,0,0,1-.13.07s-.55-.11-1.36.81A3,3,0,0,1,2.49,17.73Z" transform="translate(55.24 74.11)" fill="#7b3e2e"/><path d="M4.62,52.33l-.11.07C2.64,49.57-1.86,49.53-6,49.84a64.08,64.08,0,0,0,7.08-2.49C3.06,46.45,4.35,49.68,4.62,52.33Z" transform="translate(55.24 74.11)" fill="#322924"/><path d="M-9.33,50.26a.12.12,0,0,1-.11-.1.12.12,0,0,1,.1-.12c4.21-.43,6.11-5.15,6.17-5.65A.11.11,0,0,1-3,44.3a.1.1,0,0,1,.09.12c-.07.51-2,5.39-6.37,5.84Z" transform="translate(55.24 74.11)" fill="#322924"/><path d="M25.61,51h0c-4.44-1.4-7.33-5.5-8.42-7a5.75,5.75,0,0,0-.48-.64c-.06,0-.09-.06-.08-.12a.1.1,0,0,1,.13-.08c.11,0,.21.15.61.72,1.08,1.52,3.94,5.58,8.3,7a.11.11,0,0,1,0,.21Z" transform="translate(55.24 74.11)" fill="#322924"/><path d="M43.79,69.28h0c-2.85-.89-3-6.38-3-6.87a.11.11,0,1,1,.21,0c-.11.79.27,5.84,2.81,6.63a.11.11,0,0,1,0,.21Z" transform="translate(55.24 74.11)" fill="#322924"/><path d="M31.5,31.19a.11.11,0,0,1,0-.2,7.12,7.12,0,0,1,3.85-.3.11.11,0,0,1,0,.21,7.36,7.36,0,0,0-3.73.28Z" transform="translate(55.24 74.11)" fill="#322924"/><path d="M12.39,31.57a.09.09,0,0,1-.07,0C10.94,30.45,8.52,31,8.5,31a.11.11,0,0,1-.05-.21c.1,0,2.54-.6,4,.56a.12.12,0,0,1,0,.16A.12.12,0,0,1,12.39,31.57Z" transform="translate(55.24 74.11)" fill="#322924"/></g></g></g></svg>